<svg version="1.1" preserveAspectRatio="none" xmlns="http://www.w3.org/2000/svg" width="500" height="500" viewBox="0 0 500 500"><rect width="100%" height="100%" fill="#FCF2E8" fill-opacity="1"/><svg viewBox="478.0319 354.4669 483.375 120" width="333" height="82.66873545384018" x="83.5px" y="208.6656px" xmlns="http://www.w3.org/2000/svg" xmlns:xlink="http://www.w3.org/1999/xlink" preserveAspectRatio="none"><defs></defs><style>.aIptOCySncolors-3 {fill:#4348FF;fill-opacity:1;}.aIptOCySncolors-4 {fill:#FEA732;fill-opacity:1;}.aIptOCySncolors-5 {fill:#FF8965;fill-opacity:1;}.aIptOCySncolors-6 {fill:#FED532;fill-opacity:1;}.aIptOCySncolors-7 {fill:#C6CEFF;fill-opacity:1;}.companyName {fill:#FE6232;fill-opacity:1;}.icon1 {fill:#FE6232;fill-opacity:1;}.icon2 {fill:#9545ED;fill-opacity:1;}.icon3 {fill:#F41616;fill-opacity:1;}.icon3-str {stroke:#F41616;stroke-opacity:1;}.shape {fill:#FFFFFF;fill-opacity:1;}.shapeStroke-str {stroke:#FE6232;stroke-opacity:1;}</style><g opacity="1" transform="rotate(0 478.0319 354.4669)">
<svg width="120.0003" height="120" x="478.0319" y="354.4669" version="1.1" preserveAspectRatio="none" viewBox="0 0 120.0003 120">
  <defs><rect x="0" y="0" width="120.0003" height="120" rx="150px" ry="150px" id="id-5kldYRpCP1729070463602"></rect></defs><use class="shape shapeStroke-str" style="stroke-width:0;" xlink:href="#id-5kldYRpCP1729070463602"></use>
</svg>
</g><g opacity="1" transform="rotate(0 503.0321 379.4669)">
<svg width="70" height="70" x="503.0321" y="379.4669" version="1.1" preserveAspectRatio="none" viewBox="5.129000186920166 5.129000186920166 89.74200439453125 89.74200439453125">
  <g transform="matrix(1 0 0 1 0 0)" class="icon1"><g><path d="M72.436,27.564V5.129H27.564v22.435H5.129v44.871h22.435v22.436h44.871V72.436h22.436V27.564H72.436z M86.457,64.022   H64.022v22.435H35.978V64.022H13.542V35.978h22.436V13.542h28.044v22.436h22.435V64.022z"></path><polygon points="58.413,19.151 41.587,19.151 41.587,41.587 19.151,41.587 19.151,58.413 41.587,58.413 41.587,80.849    58.413,80.849 58.413,58.413 80.849,58.413 80.849,41.587 58.413,41.587  "></polygon></g></g>
</svg>
</g><g opacity="1" transform="rotate(0 622.0322 354.4669)">
<svg width="339.3747" height="120" x="622.0322" y="354.4669" version="1.1" preserveAspectRatio="none" viewBox="3.32 -28.48 216.52 76.56">
  <g transform="matrix(1 0 0 1 0 0)" class="companyName"><path id="id-D6z1nYkh13" d="M24.00-6.84L24.00-14.44L29.92-14.44L29.92 0L25.04 0L25.04-1.68Q22.12 0.48 17.52 0.48L17.52 0.48Q13.64 0.48 10.40-1.20Q7.16-2.88 5.24-6.10Q3.32-9.32 3.32-13.76L3.32-13.76Q3.32-18.04 5.30-21.38Q7.28-24.72 10.80-26.60Q14.32-28.48 18.72-28.48L18.72-28.48Q22.40-28.48 25.40-27.24Q28.40-26 30.44-23.64L30.44-23.64L26.28-19.80Q23.28-22.96 19.04-22.96L19.04-22.96Q16.36-22.96 14.28-21.82Q12.20-20.68 11.04-18.60Q9.88-16.52 9.88-13.80L9.88-13.80Q9.88-10.96 11.02-8.96Q12.16-6.96 14.08-5.94Q16-4.92 18.28-4.92L18.28-4.92Q21.68-4.92 24.00-6.84L24.00-6.84Z M46.32-4.68Q48.00-4.68 49.30-5.18Q50.60-5.68 51.72-6.76L51.72-6.76L55.04-3.16Q52 0.32 46.16 0.32L46.16 0.32Q42.52 0.32 39.72-1.10Q36.92-2.52 35.40-5.04Q33.88-7.56 33.88-10.76L33.88-10.76Q33.88-13.92 35.38-16.46Q36.88-19 39.50-20.42Q42.12-21.84 45.40-21.84L45.40-21.84Q48.48-21.84 51-20.54Q53.52-19.24 55.02-16.78Q56.52-14.32 56.52-10.96L56.52-10.96L40.60-7.88Q41.28-6.28 42.74-5.48Q44.20-4.68 46.32-4.68L46.32-4.68ZM45.40-17.12Q43.04-17.12 41.56-15.60Q40.08-14.08 40.00-11.40L40.00-11.40L50.48-13.44Q50.04-15.12 48.68-16.12Q47.32-17.12 45.40-17.12L45.40-17.12Z M71.56-4.68Q73.24-4.68 74.54-5.18Q75.84-5.68 76.96-6.76L76.96-6.76L80.28-3.16Q77.24 0.32 71.40 0.32L71.40 0.32Q67.76 0.32 64.96-1.10Q62.16-2.52 60.64-5.04Q59.12-7.56 59.12-10.76L59.12-10.76Q59.12-13.92 60.62-16.46Q62.12-19 64.74-20.42Q67.36-21.84 70.64-21.84L70.64-21.84Q73.72-21.84 76.24-20.54Q78.76-19.24 80.26-16.78Q81.76-14.32 81.76-10.96L81.76-10.96L65.84-7.88Q66.52-6.28 67.98-5.48Q69.44-4.68 71.56-4.68L71.56-4.68ZM70.64-17.12Q68.28-17.12 66.80-15.60Q65.32-14.08 65.24-11.40L65.24-11.40L75.72-13.44Q75.28-15.12 73.92-16.12Q72.56-17.12 70.64-17.12L70.64-17.12Z M97.28-5.44L98.92-1.04Q98-0.36 96.66-0.02Q95.32 0.32 93.88 0.32L93.88 0.32Q90 0.32 87.92-1.64Q85.84-3.60 85.84-7.40L85.84-7.40L85.84-26.28L92.08-26.28L92.08-21.04L97.40-21.04L97.40-16.24L92.08-16.24L92.08-7.48Q92.08-6.12 92.76-5.38Q93.44-4.64 94.72-4.64L94.72-4.64Q96.16-4.64 97.28-5.44L97.28-5.44Z M117.36-21.52L123.60-21.52L123.60 0L117.64 0L117.64-2.48Q115.32 0.32 110.92 0.32L110.92 0.32Q107.88 0.32 105.42-1.04Q102.96-2.40 101.56-4.92Q100.16-7.44 100.16-10.76L100.16-10.76Q100.16-14.08 101.56-16.60Q102.96-19.12 105.42-20.48Q107.88-21.84 110.92-21.84L110.92-21.84Q115.04-21.84 117.36-19.24L117.36-19.24L117.36-21.52ZM112-4.80Q114.36-4.80 115.92-6.42Q117.48-8.04 117.48-10.76L117.48-10.76Q117.48-13.48 115.92-15.10Q114.36-16.72 112-16.72L112-16.72Q109.60-16.72 108.04-15.10Q106.48-13.48 106.48-10.76L106.48-10.76Q106.48-8.04 108.04-6.42Q109.60-4.80 112-4.80L112-4.80Z M15.44 12Q19.16 12 21.90 13.24Q24.64 14.48 26.12 16.76Q27.60 19.04 27.60 22.16L27.60 22.16Q27.60 25.24 26.12 27.54Q24.64 29.84 21.90 31.06Q19.16 32.28 15.44 32.28L15.44 32.28L9.80 32.28L9.80 40L3.32 40L3.32 12L15.44 12ZM15.08 27Q18 27 19.52 25.74Q21.04 24.48 21.04 22.16L21.04 22.16Q21.04 19.80 19.52 18.54Q18 17.28 15.08 17.28L15.08 17.28L9.80 17.28L9.80 27L15.08 27Z M45.24 18.16Q49.24 18.16 51.70 20.56Q54.16 22.96 54.16 27.68L54.16 27.68L54.16 40L47.92 40L47.92 28.64Q47.92 26.08 46.80 24.82Q45.68 23.56 43.56 23.56L43.56 23.56Q41.20 23.56 39.80 25.02Q38.40 26.48 38.40 29.36L38.40 29.36L38.40 40L32.16 40L32.16 10.32L38.40 10.32L38.40 20.72Q39.64 19.48 41.40 18.82Q43.16 18.16 45.24 18.16L45.24 18.16Z M75.64 18.48L81.88 18.48L81.88 40L75.92 40L75.92 37.52Q73.60 40.32 69.20 40.32L69.20 40.32Q66.16 40.32 63.70 38.96Q61.24 37.60 59.84 35.08Q58.44 32.56 58.44 29.24L58.44 29.24Q58.44 25.92 59.84 23.40Q61.24 20.88 63.70 19.52Q66.16 18.16 69.20 18.16L69.20 18.16Q73.32 18.16 75.64 20.76L75.64 20.76L75.64 18.48ZM70.28 35.20Q72.64 35.20 74.20 33.58Q75.76 31.96 75.76 29.24L75.76 29.24Q75.76 26.52 74.20 24.90Q72.64 23.28 70.28 23.28L70.28 23.28Q67.88 23.28 66.32 24.90Q64.76 26.52 64.76 29.24L64.76 29.24Q64.76 31.96 66.32 33.58Q67.88 35.20 70.28 35.20L70.28 35.20Z M93.60 21.32Q94.72 19.76 96.62 18.96Q98.52 18.16 101 18.16L101 18.16L101 23.92Q99.96 23.84 99.60 23.84L99.60 23.84Q96.92 23.84 95.40 25.34Q93.88 26.84 93.88 29.84L93.88 29.84L93.88 40L87.64 40L87.64 18.48L93.60 18.48L93.60 21.32Z M132.28 18.16Q136.32 18.16 138.70 20.54Q141.08 22.92 141.08 27.68L141.08 27.68L141.08 40L134.84 40L134.84 28.64Q134.84 26.08 133.78 24.82Q132.72 23.56 130.76 23.56L130.76 23.56Q128.56 23.56 127.28 24.98Q126 26.40 126 29.20L126 29.20L126 40L119.76 40L119.76 28.64Q119.76 23.56 115.68 23.56L115.68 23.56Q113.52 23.56 112.24 24.98Q110.96 26.40 110.96 29.20L110.96 29.20L110.96 40L104.72 40L104.72 18.48L110.68 18.48L110.68 20.96Q111.88 19.60 113.62 18.88Q115.36 18.16 117.44 18.16L117.44 18.16Q119.72 18.16 121.56 19.06Q123.40 19.96 124.52 21.68L124.52 21.68Q125.84 20 127.86 19.08Q129.88 18.16 132.28 18.16L132.28 18.16Z M162.52 18.48L168.76 18.48L168.76 40L162.80 40L162.80 37.52Q160.48 40.32 156.08 40.32L156.08 40.32Q153.04 40.32 150.58 38.96Q148.12 37.60 146.72 35.08Q145.32 32.56 145.32 29.24L145.32 29.24Q145.32 25.92 146.72 23.40Q148.12 20.88 150.58 19.52Q153.04 18.16 156.08 18.16L156.08 18.16Q160.20 18.16 162.52 20.76L162.52 20.76L162.52 18.48ZM157.16 35.20Q159.52 35.20 161.08 33.58Q162.64 31.96 162.64 29.24L162.64 29.24Q162.64 26.52 161.08 24.90Q159.52 23.28 157.16 23.28L157.16 23.28Q154.76 23.28 153.20 24.90Q151.64 26.52 151.64 29.24L151.64 29.24Q151.64 31.96 153.20 33.58Q154.76 35.20 157.16 35.20L157.16 35.20Z M184.92 40.32Q181.48 40.32 178.74 38.90Q176.00 37.48 174.46 34.96Q172.92 32.44 172.92 29.24L172.92 29.24Q172.92 26.04 174.46 23.52Q176.00 21 178.74 19.58Q181.48 18.16 184.92 18.16L184.92 18.16Q188.32 18.16 190.86 19.58Q193.40 21 194.56 23.64L194.56 23.64L189.72 26.24Q188.04 23.28 184.88 23.28L184.88 23.28Q182.44 23.28 180.84 24.88Q179.24 26.48 179.24 29.24L179.24 29.24Q179.24 32 180.84 33.60Q182.44 35.20 184.88 35.20L184.88 35.20Q188.08 35.20 189.72 32.24L189.72 32.24L194.56 34.88Q193.40 37.44 190.86 38.88Q188.32 40.32 184.92 40.32L184.92 40.32Z M213.60 18.48L219.84 18.48L219.84 36.40Q219.84 42.32 216.84 45.20Q213.84 48.08 208.12 48.08L208.12 48.08Q205.08 48.08 202.38 47.32Q199.68 46.56 197.84 45.12L197.84 45.12L200.32 40.64Q201.68 41.76 203.64 42.40Q205.60 43.04 207.60 43.04L207.60 43.04Q210.72 43.04 212.16 41.60Q213.60 40.16 213.60 37.20L213.60 37.20L213.60 36.48Q212.40 37.68 210.76 38.32Q209.12 38.96 207.24 38.96L207.24 38.96Q203.00 38.96 200.52 36.54Q198.04 34.12 198.04 29.28L198.04 29.28L198.04 18.48L204.28 18.48L204.28 28.36Q204.28 33.60 208.64 33.60L208.64 33.60Q210.88 33.60 212.24 32.14Q213.60 30.68 213.60 27.80L213.60 27.80L213.60 18.48Z"/></g>
</svg>
</g></svg></svg>